PathFileType	4	(X/Y/Z)	C:/Users/opensim2020/Desktop/walking_exp_matlab/subject06_walking18_straight_01.trc																																																																																																																																											
DataRate	CameraRate	NumFrames	NumMarkers	Units	OrigDataRate	OrigDataStartFrame	OrigNumFrames																																																																																																																																							
100	100	4	47	mm	100	1364	396																																																																																																																																							
Frame#	Time	LFHD			RFHD			LBHD			RBHD			C7			T10			CLAV			STRN			RBAK			LSHO			LUPA			LELB			LFRM			LWRA			LWRB			LFIN			RSHO			RUPA			RELB			RFRM			RWRA			RWRB			RFIN			LASI			RASI			LPSI			RPSI			LTHI			LKNE			LTIB			LANK			LHEE			LTOE			RTHI			RKNE			RTIB			RANK			RHEE			RTOE			*39			*40			*41			*42			*43			*44			*45			*46		
		X1	Y1	Z1	X2	Y2	Z2	X3	Y3	Z3	X4	Y4	Z4	X5	Y5	Z5	X6	Y6	Z6	X7	Y7	Z7	X8	Y8	Z8	X9	Y9	Z9	X10	Y10	Z10	X11	Y11	Z11	X12	Y12	Z12	X13	Y13	Z13	X14	Y14	Z14	X15	Y15	Z15	X16	Y16	Z16	X17	Y17	Z17	X18	Y18	Z18	X19	Y19	Z19	X20	Y20	Z20	X21	Y21	Z21	X22	Y22	Z22	X23	Y23	Z23	X24	Y24	Z24	X25	Y25	Z25	X26	Y26	Z26	X27	Y27	Z27	X28	Y28	Z28	X29	Y29	Z29	X30	Y30	Z30	X31	Y31	Z31	X32	Y32	Z32	X33	Y33	Z33	X34	Y34	Z34	X35	Y35	Z35	X36	Y36	Z36	X37	Y37	Z37	X38	Y38	Z38	X39	Y39	Z39	X40	Y40	Z40	X41	Y41	Z41	X42	Y42	Z42	X43	Y43	Z43	X44	Y44	Z44	X45	Y45	Z45	X46	Y46	Z46	X47	Y47	Z47
																																																																																																																																														
347	3.46	1166.06958	1657.09192	1369.95886	1183.62048	1648.36987	1500.0094	1029.54724	1614.75342	1389.125	1049.17395	1610.8949	1517.33118	1026.05664	1453.95679	1447.28467	984.48053	1124.23718	1460.14893	1132.88049	1373.03162	1437.28186	1167.35583	1196.2688	1431.76819	955.69025	1284.65649	1535.98694	1060.91394	1403.86902	1281.13086	1025.63306	1203.07788	1215.88928	1004.50305	1092.16223	1208.76025	1021.271	943.00745	1182.91272	1091.90674	830.32397	1210.16052	1024.65405	823.75275	1188.78149	1065.59412	742.9693	1180.13232	1104.1355	1408.31433	1601.06848	1079.83789	1209.21204	1693.13831	1094.4657	1087.79321	1702.62256	1123.52844	970.40784	1713.46411	1190.77551	840.75665	1665.32483	1145.63928	833.99646	1714.22571	1193.65857	765.46234	1708.16077	1157.93359	965.2774	1339.85632	1162.56836	964.1073	1560.53662	998.93048	989.85547	1370.68872	1009.33411	993.10889	1539.35559	1139.97766	652.69159	1273.74109	1188.51123	499.25076	1303.31079	1227.82202	248.21294	1311.00635	1285.64258	84.5324	1348.5603	1256.71777	61.19308	1399.15637	1432.51904	88.00018	1340.71472	1074.81458	631.43231	1601.96179	1057.3429	505.80295	1578.19397	952.33594	257.85056	1568.60291	892.36658	82.30054	1518.31433	846.77258	64.51972	1474.50964	1039.2218	36.16848	1519.4729	1078.38562	1704.83337	1440.9364	NaN	NaN	NaN	NaN	NaN	NaN	NaN	NaN	NaN	NaN	NaN	NaN	NaN	NaN	NaN	NaN	NaN	NaN	NaN	NaN	NaN
348	3.47	1171.67456	1656.4469	1368.44678	1189.54199	1647.81104	1498.44226	1035.23743	1614.22742	1388.04016	1055.11829	1610.50366	1516.17065	1031.67163	1453.51599	1446.08667	989.94202	1123.78662	1458.82007	1138.43555	1372.521	1436.31274	1172.7323	1195.72266	1430.88281	961.05988	1284.28638	1534.78003	1066.69983	1403.29517	1279.99731	1031.20764	1202.39575	1215.1095	1009.96472	1091.50354	1208.05408	1026.36865	942.28253	1182.51892	1096.81067	829.51227	1209.95862	1029.80786	823.17261	1188.32568	1070.3103	742.17816	1180.04883	1109.51868	1407.9165	1599.92737	1085.27002	1208.88379	1692.26062	1099.94116	1087.52698	1701.92517	1129.08618	970.15265	1712.93054	1196.28101	840.40149	1664.93738	1151.16589	833.72015	1713.87402	1199.20605	765.2569	1707.90027	1163.77966	964.73199	1339.32837	1167.71277	963.98676	1560.16809	1004.67072	989.10809	1369.48743	1014.45245	992.53632	1538.27075	1146.18958	652.19489	1273.35449	1193.86206	498.76294	1302.89722	1233.83826	247.52686	1310.55139	1292.90674	84.18856	1347.97327	1264.10315	60.96999	1399.64197	1439.52356	88.87047	1337.88562	1080.51086	631.04456	1601.46741	1063.46692	505.32504	1577.89099	955.9408	258.54007	1568.70593	893.07709	83.50916	1518.58569	847.08777	66.27141	1474.7041	1039.3656	36.11493	1519.55896	1084.20947	1704.32007	1439.5968	NaN	NaN	NaN	NaN	NaN	NaN	NaN	NaN	NaN	NaN	NaN	NaN	NaN	NaN	NaN	NaN	NaN	NaN	NaN	NaN	NaN
349	3.48	1177.38257	1655.83423	1366.9386	1195.51025	1647.32861	1496.89185	1040.9624	1613.72339	1386.81372	1061.1134	1610.16638	1514.93481	1037.35144	1453.09009	1444.7384	995.78564	1123.23718	1457.50146	1143.96936	1371.97461	1435.13538	1178.13635	1195.23401	1429.90356	966.45074	1284.00208	1533.45227	1072.48059	1402.76807	1278.73303	1036.94055	1201.81921	1214.12598	1015.90472	1090.93433	1207.41199	1031.86023	941.60889	1181.84045	1101.98279	828.79346	1209.62109	1034.71887	822.43994	1188.10278	1075.35962	741.46387	1179.82861	1114.91357	1407.52527	1598.72156	1090.77295	1208.7179	1691.46423	1105.43689	1087.27368	1701.14001	1134.53442	969.88	1712.27051	1201.755	840.08527	1664.52759	1156.79028	833.70105	1713.71436	1204.61829	764.98108	1707.64441	1169.78076	964.32294	1338.73633	1172.98267	963.90991	1559.65796	1010.54974	988.4231	1368.29956	1019.72675	991.93134	1537.06018	1152.4978	651.73633	1273.00037	1199.41687	498.26712	1302.41382	1239.44067	246.85997	1309.99084	1298.99487	83.66856	1347.28772	1270.65942	60.39645	1399.61743	1445.35986	89.06368	1335.27771	1086.4397	630.95416	1601.05176	1069.78223	504.85168	1577.25525	959.38782	258.97531	1568.54553	893.91925	85.04021	1518.89941	847.61517	68.30989	1475.08521	1039.46594	36.08792	1519.56592	1090.1145	1703.88501	1438.2262	NaN	NaN	NaN	NaN	NaN	NaN	NaN	NaN	NaN	NaN	NaN	NaN	NaN	NaN	NaN	NaN	NaN	NaN	NaN	NaN	NaN
350	3.49	1183.05127	1655.25671	1365.29089	1201.47522	1646.83057	1495.21411	1046.55383	1613.3606	1385.54871	1067.03418	1609.83191	1513.60901	1042.87451	1452.68066	1443.39258	1000.86041	1122.82947	1456.07507	1149.53223	1371.47864	1433.90662	1183.58691	1194.78516	1428.90186	971.83899	1283.78796	1532.08313	1078.35864	1402.25171	1277.42639	1042.70837	1201.3374	1212.90881	1021.49823	1090.38721	1206.26697	1037.43713	940.95996	1181.22009	1107.18372	828.02484	1209.35132	1040.81567	821.72894	1188.24036	1080.63367	740.82739	1179.44995	1120.32251	1407.18347	1597.47998	1096.07678	1208.38354	1690.18567	1110.85876	1087.03552	1700.16443	1140.07788	969.75366	1711.60962	1207.1626	839.78979	1664.11218	1162.19434	833.52179	1713.24695	1209.99817	764.70361	1707.37781	1175.83716	963.98212	1338.03625	1178.36511	963.88068	1559.07214	1016.52698	987.76813	1367.08044	1025.16724	991.3736	1535.8916	1158.93103	651.40021	1272.50781	1204.89832	497.75458	1301.97437	1244.39001	246.0247	1309.43799	1304.03149	82.86598	1346.66101	1276.2041	59.55153	1399.24011	1450.05457	88.51928	1332.99573	1092.52808	630.56549	1600.45898	1076.19592	504.5	1576.89905	962.9776	259.70041	1568.45532	894.87	86.701	1519.19421	848.51569	70.51752	1475.63367	1039.6366	36.14568	1519.61316	1095.99146	1703.44849	1436.73254	NaN	NaN	NaN	NaN	NaN	NaN	NaN	NaN	NaN	NaN	NaN	NaN	NaN	NaN	NaN	NaN	NaN	NaN	NaN	NaN	NaN
